;PTH Drill file created by EasyEDA 
M48
INCH,LZ,00.0000
;Holesize 1 = 0.012 INCH
T01C0.012
%
G05
G90
T01
X+024002Y+008271
X+025102Y+005371
X+013301Y+008321
X+008901Y+017021
X+013351Y+024821
X+023202Y+025321
X+028502Y+017021
X+012601Y+006721
X+013251Y+006321
X+024102Y+006321
X+024802Y+006721
X+030202Y+016121
X+030202Y+016921
X+024102Y+026721
X+024802Y+026321
X+012601Y+026321
X+013301Y+026721
X+007101Y+016921
X+007101Y+016121
X+005801Y+016521
X+012251Y+005371
X+031602Y+016521
X+025152Y+027671
X+012251Y+027671
X+005201Y+016921
X+005201Y+016121
X+011651Y+005121
X+012301Y+004721
X+025052Y+004671
X+025702Y+005071
X+032102Y+016121
X+032102Y+016921
X+025102Y+028421
X+025752Y+028021
X+011601Y+028021
X+012251Y+028421
X+015601Y+016721
X+021302Y+016021
X+018202Y+020121
X+021402Y+014021
X+018602Y+018821
X+023002Y+010021
X+021002Y+014871
X+018602Y+013921
X+018702Y+011421
X+016402Y+016371
X+018202Y+015421
X+019302Y+015421
X+020302Y+018121
X+017102Y+018121
X+017102Y+014921
X+020302Y+014921
X+022402Y+017021
X+022402Y+015921
X+013001Y+018121
X+014301Y+018121
X+023102Y+018121
X+024402Y+018121
X+023102Y+015021
X+024402Y+015021
X+025102Y+015921
X+025102Y+017021
X+012301Y+017021
X+012301Y+015921
X+013301Y+023821
X+009701Y+017521
X+015101Y+024821
X+022302Y+024821
X+024002Y+023921
X+027602Y+017521
X+027702Y+015521
X+024002Y+009221
X+022402Y+008221
X+015001Y+008221
X+013401Y+009221
X+009701Y+015521
X+017902Y+019621
X+019602Y+019621
X+015901Y+019621
X+021202Y+019921
X+021102Y+013621
X+016301Y+011121
X+017302Y+009321
X+020202Y+009321
X+020202Y+013321
X+021002Y+011821
X+016402Y+013821
X+013001Y+015021
X+015601Y+015821
X+021302Y+014421
X+019802Y+015921
X+021802Y+015121
X+023502Y+012321
X+024102Y+013821
X+026852Y+012971
X+025602Y+013121
X+026102Y+014421
X+020952Y+016521
X+019802Y+017121
X+019302Y+017621
X+018202Y+017621
X+017602Y+015921
X+017602Y+017121
X+014301Y+015021
M30
