G04 ---------------------------- Layer name :BOTTOM SILK LAYER*
G04 EasyEDA v5.8.22, Wed, 05 Dec 2018 12:37:06 GMT*
G04 38c36d2c5fec4219b0fe707d271aa1e6*
G04 Gerber Generator version 0.2*
G04 Scale: 100 percent, Rotated: No, Reflected: No *
G04 Dimensions in inches *
G04 leading zeros omitted , absolute positions ,2 integer and 4 decimal *
%FSLAX24Y24*%
%MOIN*%
G90*
G70D02*

%ADD10C,0.010000*%
%ADD25C,0.007870*%
%ADD28C,0.008000*%
%ADD29C,0.005000*%
%ADD30C,0.003937*%
%ADD31C,0.004000*%

%LPD*%

%LPD*%
G36*
G01X20502Y21921D02*
G01X20502Y21921D01*
G01X20502Y21921D01*
G01X20527Y21910D01*
G01X20549Y21896D01*
G01X20569Y21880D01*
G01X20585Y21861D01*
G01X20585Y21861D01*
G01X20600Y21838D01*
G01X20610Y21814D01*
G01X20616Y21788D01*
G01X20617Y21760D01*
G01X20617Y21727D01*
G01X20638Y21729D01*
G01X20638Y21729D01*
G01X20663Y21733D01*
G01X20688Y21738D01*
G01X20714Y21744D01*
G01X20738Y21752D01*
G01X20763Y21761D01*
G01X20787Y21771D01*
G01X20811Y21783D01*
G01X20835Y21796D01*
G01X20835Y21796D01*
G01X20849Y21806D01*
G01X20867Y21820D01*
G01X20887Y21836D01*
G01X20906Y21854D01*
G01X20906Y21854D01*
G01X20923Y21870D01*
G01X20937Y21883D01*
G01X20947Y21891D01*
G01X20951Y21895D01*
G01X20951Y21895D01*
G01X20953Y21893D01*
G01X20956Y21888D01*
G01X20959Y21882D01*
G01X20963Y21874D01*
G01X20963Y21874D01*
G01X20968Y21862D01*
G01X20970Y21848D01*
G01X20972Y21831D01*
G01X20973Y21810D01*
G01X20973Y21810D01*
G01X20972Y21786D01*
G01X20970Y21770D01*
G01X20965Y21755D01*
G01X20956Y21737D01*
G01X20956Y21737D01*
G01X20948Y21724D01*
G01X20939Y21711D01*
G01X20931Y21700D01*
G01X20924Y21693D01*
G01X20924Y21693D01*
G01X20916Y21685D01*
G01X20918Y21681D01*
G01X20928Y21682D01*
G01X20948Y21689D01*
G01X20948Y21689D01*
G01X20965Y21694D01*
G01X20974Y21694D01*
G01X20977Y21687D01*
G01X20975Y21671D01*
G01X20975Y21671D01*
G01X20970Y21651D01*
G01X20964Y21632D01*
G01X20955Y21614D01*
G01X20944Y21597D01*
G01X20932Y21582D01*
G01X20917Y21569D01*
G01X20902Y21557D01*
G01X20884Y21547D01*
G01X20853Y21532D01*
G01X20887Y21532D01*
G01X20921Y21532D01*
G01X20905Y21502D01*
G01X20905Y21502D01*
G01X20895Y21486D01*
G01X20884Y21471D01*
G01X20871Y21458D01*
G01X20857Y21447D01*
G01X20842Y21437D01*
G01X20825Y21429D01*
G01X20808Y21423D01*
G01X20789Y21418D01*
G01X20769Y21415D01*
G01X20794Y21399D01*
G01X20794Y21399D01*
G01X20815Y21388D01*
G01X20838Y21377D01*
G01X20864Y21368D01*
G01X20890Y21360D01*
G01X20917Y21354D01*
G01X20942Y21350D01*
G01X20965Y21348D01*
G01X20985Y21349D01*
G01X20985Y21349D01*
G01X20993Y21350D01*
G01X20999Y21350D01*
G01X21003Y21349D01*
G01X21005Y21348D01*
G01X21005Y21348D01*
G01X20995Y21339D01*
G01X20969Y21325D01*
G01X20935Y21310D01*
G01X20900Y21297D01*
G01X20900Y21297D01*
G01X20880Y21291D01*
G01X20858Y21285D01*
G01X20837Y21281D01*
G01X20815Y21278D01*
G01X20793Y21276D01*
G01X20770Y21274D01*
G01X20748Y21274D01*
G01X20726Y21275D01*
G01X20703Y21276D01*
G01X20681Y21279D01*
G01X20659Y21283D01*
G01X20637Y21288D01*
G01X20616Y21293D01*
G01X20594Y21300D01*
G01X20574Y21307D01*
G01X20553Y21316D01*
G01X20553Y21316D01*
G01X20532Y21327D01*
G01X20510Y21339D01*
G01X20489Y21353D01*
G01X20469Y21368D01*
G01X20449Y21385D01*
G01X20430Y21403D01*
G01X20412Y21422D01*
G01X20395Y21441D01*
G01X20379Y21462D01*
G01X20364Y21484D01*
G01X20350Y21506D01*
G01X20338Y21529D01*
G01X20338Y21529D01*
G01X20327Y21554D01*
G01X20316Y21580D01*
G01X20307Y21607D01*
G01X20299Y21635D01*
G01X20293Y21663D01*
G01X20288Y21691D01*
G01X20285Y21717D01*
G01X20284Y21741D01*
G01X20284Y21741D01*
G01X20283Y21752D01*
G01X20278Y21763D01*
G01X20266Y21778D01*
G01X20245Y21800D01*
G01X20245Y21800D01*
G01X20221Y21825D01*
G01X20208Y21841D01*
G01X20206Y21849D01*
G01X20214Y21848D01*
G01X20214Y21848D01*
G01X20220Y21846D01*
G01X20229Y21843D01*
G01X20242Y21839D01*
G01X20255Y21835D01*
G01X20288Y21826D01*
G01X20268Y21847D01*
G01X20268Y21847D01*
G01X20253Y21864D01*
G01X20239Y21885D01*
G01X20229Y21904D01*
G01X20227Y21913D01*
G01X20227Y21913D01*
G01X20230Y21913D01*
G01X20236Y21911D01*
G01X20245Y21907D01*
G01X20255Y21903D01*
G01X20255Y21903D01*
G01X20268Y21897D01*
G01X20282Y21892D01*
G01X20295Y21887D01*
G01X20308Y21883D01*
G01X20308Y21883D01*
G01X20322Y21879D01*
G01X20331Y21878D01*
G01X20337Y21881D01*
G01X20344Y21887D01*
G01X20344Y21887D01*
G01X20351Y21893D01*
G01X20360Y21899D01*
G01X20372Y21906D01*
G01X20385Y21912D01*
G01X20385Y21912D01*
G01X20415Y21923D01*
G01X20445Y21928D01*
G01X20474Y21927D01*
G01X20502Y21921D01*
G37*

%LPD*%
G54D10*
G01X24702Y15521D02*
G01X22702Y15521D01*
G01X22702Y15521D02*
G01X22702Y14721D01*
G01X22702Y14721D02*
G01X20602Y12521D01*
G01X20602Y12521D02*
G01X16702Y12521D01*
G01X16702Y12521D02*
G01X14701Y14621D01*
G01X14701Y14621D02*
G01X14701Y15521D01*
G01X14701Y15521D02*
G01X12701Y15521D01*
G01X12701Y15521D02*
G01X12701Y17521D01*
G01X12701Y17521D02*
G01X14701Y17521D01*
G01X14701Y17521D02*
G01X14701Y20321D01*
G01X14701Y20321D02*
G01X16402Y20321D01*
G01X16402Y20321D02*
G01X17402Y19121D01*
G01X17402Y19121D02*
G01X19902Y19121D01*
G01X19902Y19121D02*
G01X20802Y20321D01*
G01X20802Y20321D02*
G01X22702Y20321D01*
G01X22702Y20321D02*
G01X22702Y17521D01*
G01X22702Y17521D02*
G01X24702Y17521D01*
G01X24702Y17521D02*
G01X24702Y15521D01*
G54D30*
G01X10101Y13046D02*
G01X11401Y10796D01*
G01X12321Y11326D01*
G01X11023Y13578D01*
G01X10101Y13046D01*
G54D31*
G01X10948Y11580D02*
G01X10505Y11324D01*
G01X10475Y11217D01*
G01X10653Y10909D01*
G01X10761Y10880D01*
G01X11205Y11136D01*
G54D25*
G01X19584Y11013D02*
G01X19063Y11013D01*
G01X19063Y11828D01*
G01X19584Y11828D01*
G01X20028Y11013D02*
G01X20548Y11013D01*
G01X20548Y11828D01*
G01X20028Y11828D01*
G01X17819Y11828D02*
G01X18340Y11828D01*
G01X18340Y11013D01*
G01X17819Y11013D01*
G01X17375Y11828D02*
G01X16855Y11828D01*
G01X16855Y11013D01*
G01X17375Y11013D01*
G54D10*
G01X12709Y14194D02*
G01X13019Y13657D01*
G01X12726Y14342D02*
G01X13246Y14642D01*
G01X13157Y13599D02*
G01X13676Y13899D01*
G01X13694Y14048D02*
G01X13384Y14584D01*
G01X23582Y11835D02*
G01X25487Y10735D01*
G01X27087Y13506D01*
G01X25182Y14606D01*
G01X23582Y11835D01*
G01X23002Y17921D02*
G01X23002Y18321D01*
G01X23402Y18321D02*
G01X23002Y17921D01*
G01X23402Y17921D01*
G54D29*
G01X21882Y11563D02*
G01X21882Y11584D01*
G01X21861Y11626D01*
G01X21840Y11646D01*
G01X21800Y11665D01*
G01X21717Y11665D01*
G01X21677Y11646D01*
G01X21657Y11626D01*
G01X21636Y11584D01*
G01X21636Y11544D01*
G01X21657Y11503D01*
G01X21696Y11440D01*
G01X21902Y11236D01*
G01X21615Y11236D01*
G01X21459Y11563D02*
G01X21459Y11584D01*
G01X21440Y11626D01*
G01X21419Y11646D01*
G01X21378Y11665D01*
G01X21296Y11665D01*
G01X21255Y11646D01*
G01X21234Y11626D01*
G01X21215Y11584D01*
G01X21215Y11544D01*
G01X21234Y11503D01*
G01X21275Y11440D01*
G01X21480Y11236D01*
G01X21194Y11236D01*
G01X21059Y11665D02*
G01X21059Y11236D01*
G01X21059Y11665D02*
G01X20896Y11236D01*
G01X20732Y11665D02*
G01X20896Y11236D01*
G01X20732Y11665D02*
G01X20732Y11236D01*
G01X16661Y11665D02*
G01X16436Y11665D01*
G01X16559Y11503D01*
G01X16496Y11503D01*
G01X16457Y11482D01*
G01X16436Y11461D01*
G01X16415Y11401D01*
G01X16415Y11359D01*
G01X16436Y11298D01*
G01X16477Y11257D01*
G01X16538Y11236D01*
G01X16600Y11236D01*
G01X16661Y11257D01*
G01X16682Y11278D01*
G01X16702Y11319D01*
G01X16240Y11665D02*
G01X16015Y11665D01*
G01X16136Y11503D01*
G01X16075Y11503D01*
G01X16034Y11482D01*
G01X16015Y11461D01*
G01X15994Y11401D01*
G01X15994Y11359D01*
G01X16015Y11298D01*
G01X16055Y11257D01*
G01X16117Y11236D01*
G01X16178Y11236D01*
G01X16240Y11257D01*
G01X16259Y11278D01*
G01X16280Y11319D01*
G01X15736Y11665D02*
G01X15798Y11646D01*
G01X15838Y11584D01*
G01X15859Y11482D01*
G01X15859Y11421D01*
G01X15838Y11319D01*
G01X15798Y11257D01*
G01X15736Y11236D01*
G01X15696Y11236D01*
G01X15634Y11257D01*
G01X15592Y11319D01*
G01X15573Y11421D01*
G01X15573Y11482D01*
G01X15592Y11584D01*
G01X15634Y11646D01*
G01X15696Y11665D01*
G01X15736Y11665D01*
G01X12686Y13478D02*
G01X12689Y13433D01*
G01X12674Y13377D01*
G01X12649Y13338D01*
G01X12606Y13290D01*
G01X12518Y13239D01*
G01X12454Y13226D01*
G01X12408Y13223D01*
G01X12352Y13238D01*
G01X12315Y13264D01*
G01X12274Y13335D01*
G01X12271Y13380D01*
G01X12286Y13436D01*
G01X12311Y13474D01*
G01X12355Y13523D01*
G01X12443Y13574D01*
G01X12506Y13587D01*
G01X12552Y13589D01*
G01X12608Y13574D01*
G01X12645Y13549D01*
G01X12686Y13478D01*
G01X12517Y13772D02*
G01X12145Y13557D01*
G01X12517Y13772D02*
G01X12002Y13806D01*
G01X12373Y14021D02*
G01X12002Y13806D01*
G54D28*
G01X23203Y11707D02*
G01X23191Y11757D01*
G01X23240Y11770D01*
G01X23254Y11721D01*
G01X23203Y11707D01*
G01X24952Y19950D02*
G01X24952Y19459D01*
G01X25197Y19705D02*
G01X24706Y19705D01*
G01X21447Y24202D02*
G01X21702Y23534D01*
G01X21447Y24202D02*
G01X21192Y23534D01*
G01X21606Y23757D02*
G01X21288Y23757D01*
G01X20982Y23980D02*
G01X20982Y23534D01*
G01X20982Y23789D02*
G01X20951Y23884D01*
G01X20887Y23948D01*
G01X20823Y23980D01*
G01X20728Y23980D01*
G01X20136Y24202D02*
G01X20136Y23534D01*
G01X20136Y23884D02*
G01X20200Y23948D01*
G01X20263Y23980D01*
G01X20359Y23980D01*
G01X20422Y23948D01*
G01X20486Y23884D01*
G01X20518Y23789D01*
G01X20518Y23725D01*
G01X20486Y23630D01*
G01X20422Y23566D01*
G01X20359Y23534D01*
G01X20263Y23534D01*
G01X20200Y23566D01*
G01X20136Y23630D01*
G01X19926Y23980D02*
G01X19926Y23661D01*
G01X19894Y23566D01*
G01X19831Y23534D01*
G01X19735Y23534D01*
G01X19671Y23566D01*
G01X19576Y23661D01*
G01X19576Y23980D02*
G01X19576Y23534D01*
G01X19366Y24202D02*
G01X19334Y24171D01*
G01X19302Y24202D01*
G01X19334Y24234D01*
G01X19366Y24202D01*
G01X19334Y23980D02*
G01X19334Y23534D01*
G01X19092Y23980D02*
G01X19092Y23534D01*
G01X19092Y23852D02*
G01X18997Y23948D01*
G01X18933Y23980D01*
G01X18838Y23980D01*
G01X18774Y23948D01*
G01X18742Y23852D01*
G01X18742Y23534D01*
G01X18373Y23980D02*
G01X18437Y23948D01*
G01X18501Y23884D01*
G01X18532Y23789D01*
G01X18532Y23725D01*
G01X18501Y23630D01*
G01X18437Y23566D01*
G01X18373Y23534D01*
G01X18278Y23534D01*
G01X18214Y23566D01*
G01X18151Y23630D01*
G01X18119Y23725D01*
G01X18119Y23789D01*
G01X18151Y23884D01*
G01X18214Y23948D01*
G01X18278Y23980D01*
G01X18373Y23980D01*
G01X17654Y24202D02*
G01X17718Y24202D01*
G01X17782Y24171D01*
G01X17813Y24075D01*
G01X17813Y23534D01*
G01X17909Y23980D02*
G01X17686Y23980D01*
G01X17444Y24202D02*
G01X17444Y23534D01*
G01X16852Y23980D02*
G01X16852Y23534D01*
G01X16852Y23884D02*
G01X16916Y23948D01*
G01X16980Y23980D01*
G01X17075Y23980D01*
G01X17139Y23948D01*
G01X17202Y23884D01*
G01X17234Y23789D01*
G01X17234Y23725D01*
G01X17202Y23630D01*
G01X17139Y23566D01*
G01X17075Y23534D01*
G01X16980Y23534D01*
G01X16916Y23566D01*
G01X16852Y23630D01*
G01X16642Y24202D02*
G01X16642Y23534D01*
G01X16324Y23980D02*
G01X16642Y23661D01*
G01X16515Y23789D02*
G01X16292Y23534D01*
G01X16082Y23789D02*
G01X15701Y23789D01*
G01X15701Y23852D01*
G01X15732Y23916D01*
G01X15764Y23948D01*
G01X15828Y23980D01*
G01X15923Y23980D01*
G01X15987Y23948D01*
G01X16051Y23884D01*
G01X16082Y23789D01*
G01X16082Y23725D01*
G01X16051Y23630D01*
G01X15987Y23566D01*
G01X15923Y23534D01*
G01X15828Y23534D01*
G01X15764Y23566D01*
G01X15701Y23630D01*
G01X21437Y8711D02*
G01X21464Y8766D01*
G01X21518Y8821D01*
G01X21573Y8848D01*
G01X21682Y8848D01*
G01X21737Y8821D01*
G01X21791Y8766D01*
G01X21818Y8711D01*
G01X21846Y8630D01*
G01X21846Y8493D01*
G01X21818Y8411D01*
G01X21791Y8357D01*
G01X21737Y8302D01*
G01X21682Y8275D01*
G01X21573Y8275D01*
G01X21518Y8302D01*
G01X21464Y8357D01*
G01X21437Y8411D01*
G01X20957Y8657D02*
G01X21257Y8275D01*
G01X21257Y8657D02*
G01X20957Y8657D01*
G01X21257Y8275D02*
G01X20957Y8275D01*
G01X20777Y8493D02*
G01X20449Y8493D01*
G01X20449Y8548D01*
G01X20477Y8602D01*
G01X20504Y8630D01*
G01X20558Y8657D01*
G01X20640Y8657D01*
G01X20695Y8630D01*
G01X20749Y8575D01*
G01X20777Y8493D01*
G01X20777Y8439D01*
G01X20749Y8357D01*
G01X20695Y8302D01*
G01X20640Y8275D01*
G01X20558Y8275D01*
G01X20504Y8302D01*
G01X20449Y8357D01*
G01X19942Y8575D02*
G01X19997Y8630D01*
G01X20051Y8657D01*
G01X20133Y8657D01*
G01X20187Y8630D01*
G01X20242Y8575D01*
G01X20269Y8493D01*
G01X20269Y8439D01*
G01X20242Y8357D01*
G01X20187Y8302D01*
G01X20133Y8275D01*
G01X20051Y8275D01*
G01X19997Y8302D01*
G01X19942Y8357D01*
G01X19762Y8848D02*
G01X19762Y8275D01*
G01X19762Y8548D02*
G01X19680Y8630D01*
G01X19626Y8657D01*
G01X19544Y8657D01*
G01X19489Y8630D01*
G01X19462Y8548D01*
G01X19462Y8275D01*
G01X18862Y8848D02*
G01X18862Y8275D01*
G01X18862Y8848D02*
G01X18617Y8848D01*
G01X18535Y8821D01*
G01X18507Y8793D01*
G01X18480Y8739D01*
G01X18480Y8684D01*
G01X18507Y8630D01*
G01X18535Y8602D01*
G01X18617Y8575D01*
G01X18862Y8575D01*
G01X18671Y8575D02*
G01X18480Y8275D01*
G01X18300Y8493D02*
G01X17973Y8493D01*
G01X17973Y8548D01*
G01X18000Y8602D01*
G01X18027Y8630D01*
G01X18082Y8657D01*
G01X18164Y8657D01*
G01X18218Y8630D01*
G01X18273Y8575D01*
G01X18300Y8493D01*
G01X18300Y8439D01*
G01X18273Y8357D01*
G01X18218Y8302D01*
G01X18164Y8275D01*
G01X18082Y8275D01*
G01X18027Y8302D01*
G01X17973Y8357D01*
G01X17793Y8657D02*
G01X17793Y8084D01*
G01X17793Y8575D02*
G01X17738Y8630D01*
G01X17684Y8657D01*
G01X17602Y8657D01*
G01X17547Y8630D01*
G01X17493Y8575D01*
G01X17466Y8493D01*
G01X17466Y8439D01*
G01X17493Y8357D01*
G01X17547Y8302D01*
G01X17602Y8275D01*
G01X17684Y8275D01*
G01X17738Y8302D01*
G01X17793Y8357D01*
G01X17286Y8657D02*
G01X17286Y8384D01*
G01X17258Y8302D01*
G01X17204Y8275D01*
G01X17122Y8275D01*
G01X17067Y8302D01*
G01X16986Y8384D01*
G01X16986Y8657D02*
G01X16986Y8275D01*
G01X16806Y8848D02*
G01X16806Y8275D01*
G01X16806Y8575D02*
G01X16751Y8630D01*
G01X16697Y8657D01*
G01X16615Y8657D01*
G01X16560Y8630D01*
G01X16506Y8575D01*
G01X16478Y8493D01*
G01X16478Y8439D01*
G01X16506Y8357D01*
G01X16560Y8302D01*
G01X16615Y8275D01*
G01X16697Y8275D01*
G01X16751Y8302D01*
G01X16806Y8357D01*
G01X16298Y8848D02*
G01X16298Y8275D01*
G01X16118Y8848D02*
G01X16091Y8821D01*
G01X16064Y8848D01*
G01X16091Y8875D01*
G01X16118Y8848D01*
G01X16091Y8657D02*
G01X16091Y8275D01*
G01X15557Y8575D02*
G01X15611Y8630D01*
G01X15666Y8657D01*
G01X15747Y8657D01*
G01X15802Y8630D01*
G01X15857Y8575D01*
G01X15884Y8493D01*
G01X15884Y8439D01*
G01X15857Y8357D01*
G01X15802Y8302D01*
G01X15747Y8275D01*
G01X15666Y8275D01*
G01X15611Y8302D01*
G01X15557Y8357D01*
G01X21902Y23102D02*
G01X21902Y22434D01*
G01X21902Y22784D02*
G01X21838Y22848D01*
G01X21774Y22880D01*
G01X21679Y22880D01*
G01X21615Y22848D01*
G01X21552Y22784D01*
G01X21520Y22689D01*
G01X21520Y22625D01*
G01X21552Y22530D01*
G01X21615Y22466D01*
G01X21679Y22434D01*
G01X21774Y22434D01*
G01X21838Y22466D01*
G01X21902Y22530D01*
G01X21278Y22880D02*
G01X21087Y22434D01*
G01X20896Y22880D02*
G01X21087Y22434D01*
G01X21151Y22307D01*
G01X21214Y22243D01*
G01X21278Y22211D01*
G01X21310Y22211D01*
G01X19878Y23102D02*
G01X19878Y22593D01*
G01X19910Y22498D01*
G01X19942Y22466D01*
G01X20005Y22434D01*
G01X20069Y22434D01*
G01X20132Y22466D01*
G01X20164Y22498D01*
G01X20196Y22593D01*
G01X20196Y22657D01*
G01X19668Y23102D02*
G01X19636Y23071D01*
G01X19604Y23102D01*
G01X19636Y23134D01*
G01X19668Y23102D01*
G01X19636Y22880D02*
G01X19636Y22434D01*
G01X19394Y22880D02*
G01X19394Y22434D01*
G01X19394Y22689D02*
G01X19362Y22784D01*
G01X19299Y22848D01*
G01X19235Y22880D01*
G01X19140Y22880D01*
G01X18930Y23102D02*
G01X18898Y23071D01*
G01X18866Y23102D01*
G01X18898Y23134D01*
G01X18930Y23102D01*
G01X18898Y22880D02*
G01X18898Y22434D01*
G01X18166Y23102D02*
G01X18166Y22434D01*
G01X18166Y23102D02*
G01X17880Y23102D01*
G01X17784Y23071D01*
G01X17752Y23039D01*
G01X17721Y22975D01*
G01X17721Y22880D01*
G01X17752Y22816D01*
G01X17784Y22784D01*
G01X17880Y22752D01*
G01X18166Y22752D01*
G01X17511Y22880D02*
G01X17511Y22434D01*
G01X17511Y22689D02*
G01X17479Y22784D01*
G01X17415Y22848D01*
G01X17352Y22880D01*
G01X17256Y22880D01*
G01X16664Y22880D02*
G01X16664Y22434D01*
G01X16664Y22784D02*
G01X16728Y22848D01*
G01X16792Y22880D01*
G01X16887Y22880D01*
G01X16951Y22848D01*
G01X17014Y22784D01*
G01X17046Y22689D01*
G01X17046Y22625D01*
G01X17014Y22530D01*
G01X16951Y22466D01*
G01X16887Y22434D01*
G01X16792Y22434D01*
G01X16728Y22466D01*
G01X16664Y22530D01*
G01X16454Y22880D02*
G01X16454Y22561D01*
G01X16422Y22466D01*
G01X16359Y22434D01*
G01X16263Y22434D01*
G01X16200Y22466D01*
G01X16104Y22561D01*
G01X16104Y22880D02*
G01X16104Y22434D01*
G01X15544Y22784D02*
G01X15576Y22848D01*
G01X15671Y22880D01*
G01X15767Y22880D01*
G01X15862Y22848D01*
G01X15894Y22784D01*
G01X15862Y22721D01*
G01X15799Y22689D01*
G01X15640Y22657D01*
G01X15576Y22625D01*
G01X15544Y22561D01*
G01X15544Y22530D01*
G01X15576Y22466D01*
G01X15671Y22434D01*
G01X15767Y22434D01*
G01X15862Y22466D01*
G01X15894Y22530D01*
G01X19492Y21730D02*
G01X19520Y21784D01*
G01X19574Y21811D01*
G01X19656Y21811D01*
G01X19711Y21784D01*
G01X19738Y21757D01*
G01X19765Y21675D01*
G01X19765Y21593D01*
G01X19738Y21539D01*
G01X19683Y21511D01*
G01X19602Y21511D01*
G01X19547Y21539D01*
G01X19520Y21593D01*
G01X19656Y21811D02*
G01X19711Y21757D01*
G01X19738Y21675D01*
G01X19738Y21593D01*
G01X19711Y21539D01*
G01X19683Y21511D01*
G01X19492Y21811D02*
G01X19520Y21593D01*
G01X19520Y21539D01*
G01X19465Y21511D01*
G01X19411Y21511D01*
G01X19356Y21566D01*
G01X19329Y21648D01*
G01X19329Y21702D01*
G01X19356Y21784D01*
G01X19383Y21839D01*
G01X19438Y21893D01*
G01X19492Y21921D01*
G01X19574Y21948D01*
G01X19656Y21948D01*
G01X19738Y21921D01*
G01X19792Y21893D01*
G01X19847Y21839D01*
G01X19874Y21784D01*
G01X19902Y21702D01*
G01X19902Y21621D01*
G01X19874Y21539D01*
G01X19847Y21484D01*
G01X19792Y21430D01*
G01X19738Y21402D01*
G01X19656Y21375D01*
G01X19574Y21375D01*
G01X19492Y21402D01*
G01X19438Y21430D01*
G01X19411Y21457D01*
G01X19465Y21811D02*
G01X19492Y21593D01*
G01X19492Y21539D01*
G01X19465Y21511D01*
G01X19040Y21948D02*
G01X19012Y21921D01*
G01X18985Y21948D01*
G01X19012Y21975D01*
G01X19040Y21948D01*
G01X19012Y21757D02*
G01X19012Y21293D01*
G01X19040Y21211D01*
G01X19094Y21184D01*
G01X19149Y21184D01*
G01X18805Y21948D02*
G01X18778Y21921D01*
G01X18751Y21948D01*
G01X18778Y21975D01*
G01X18805Y21948D01*
G01X18778Y21757D02*
G01X18778Y21375D01*
G01X18571Y21757D02*
G01X18571Y21184D01*
G01X18571Y21675D02*
G01X18516Y21730D01*
G01X18461Y21757D01*
G01X18380Y21757D01*
G01X18325Y21730D01*
G01X18271Y21675D01*
G01X18243Y21593D01*
G01X18243Y21539D01*
G01X18271Y21457D01*
G01X18325Y21402D01*
G01X18380Y21375D01*
G01X18461Y21375D01*
G01X18516Y21402D01*
G01X18571Y21457D01*
G01X18063Y21757D02*
G01X18063Y21375D01*
G01X18063Y21593D02*
G01X18036Y21675D01*
G01X17982Y21730D01*
G01X17927Y21757D01*
G01X17845Y21757D01*
G01X17338Y21757D02*
G01X17338Y21375D01*
G01X17338Y21675D02*
G01X17392Y21730D01*
G01X17447Y21757D01*
G01X17529Y21757D01*
G01X17583Y21730D01*
G01X17638Y21675D01*
G01X17665Y21593D01*
G01X17665Y21539D01*
G01X17638Y21457D01*
G01X17583Y21402D01*
G01X17529Y21375D01*
G01X17447Y21375D01*
G01X17392Y21402D01*
G01X17338Y21457D01*
G01X17158Y21757D02*
G01X17158Y21484D01*
G01X17131Y21402D01*
G01X17076Y21375D01*
G01X16994Y21375D01*
G01X16940Y21402D01*
G01X16858Y21484D01*
G01X16858Y21757D02*
G01X16858Y21375D01*
G01X16378Y21675D02*
G01X16405Y21730D01*
G01X16487Y21757D01*
G01X16569Y21757D01*
G01X16651Y21730D01*
G01X16678Y21675D01*
G01X16651Y21621D01*
G01X16596Y21593D01*
G01X16460Y21566D01*
G01X16405Y21539D01*
G01X16378Y21484D01*
G01X16378Y21457D01*
G01X16405Y21402D01*
G01X16487Y21375D01*
G01X16569Y21375D01*
G01X16651Y21402D01*
G01X16678Y21457D01*
G01X21502Y9848D02*
G01X21283Y9275D01*
G01X21065Y9848D02*
G01X21283Y9275D01*
G01X20558Y9657D02*
G01X20558Y9275D01*
G01X20558Y9575D02*
G01X20612Y9630D01*
G01X20667Y9657D01*
G01X20749Y9657D01*
G01X20803Y9630D01*
G01X20858Y9575D01*
G01X20885Y9493D01*
G01X20885Y9439D01*
G01X20858Y9357D01*
G01X20803Y9302D01*
G01X20749Y9275D01*
G01X20667Y9275D01*
G01X20612Y9302D01*
G01X20558Y9357D01*
G01X20378Y9657D02*
G01X20378Y9275D01*
G01X20378Y9548D02*
G01X20296Y9630D01*
G01X20242Y9657D01*
G01X20160Y9657D01*
G01X20105Y9630D01*
G01X20078Y9548D01*
G01X20078Y9275D01*
G01X19761Y9657D02*
G01X19816Y9630D01*
G01X19871Y9575D01*
G01X19898Y9493D01*
G01X19898Y9439D01*
G01X19871Y9357D01*
G01X19816Y9302D01*
G01X19761Y9275D01*
G01X19680Y9275D01*
G01X19625Y9302D01*
G01X19571Y9357D01*
G01X19543Y9439D01*
G01X19543Y9493D01*
G01X19571Y9575D01*
G01X19625Y9630D01*
G01X19680Y9657D01*
G01X19761Y9657D01*
G01X19036Y9575D02*
G01X19091Y9630D01*
G01X19145Y9657D01*
G01X19227Y9657D01*
G01X19282Y9630D01*
G01X19336Y9575D01*
G01X19363Y9493D01*
G01X19363Y9439D01*
G01X19336Y9357D01*
G01X19282Y9302D01*
G01X19227Y9275D01*
G01X19145Y9275D01*
G01X19091Y9302D01*
G01X19036Y9357D01*
G01X18856Y9493D02*
G01X18529Y9493D01*
G01X18529Y9548D01*
G01X18556Y9602D01*
G01X18583Y9630D01*
G01X18638Y9657D01*
G01X18720Y9657D01*
G01X18774Y9630D01*
G01X18829Y9575D01*
G01X18856Y9493D01*
G01X18856Y9439D01*
G01X18829Y9357D01*
G01X18774Y9302D01*
G01X18720Y9275D01*
G01X18638Y9275D01*
G01X18583Y9302D01*
G01X18529Y9357D01*
G01X17902Y9711D02*
G01X17902Y9739D01*
G01X17874Y9793D01*
G01X17847Y9821D01*
G01X17792Y9848D01*
G01X17683Y9848D01*
G01X17629Y9821D01*
G01X17602Y9793D01*
G01X17574Y9739D01*
G01X17574Y9684D01*
G01X17602Y9630D01*
G01X17656Y9548D01*
G01X17929Y9275D01*
G01X17547Y9275D01*
G01X17203Y9848D02*
G01X17285Y9821D01*
G01X17340Y9739D01*
G01X17367Y9602D01*
G01X17367Y9521D01*
G01X17340Y9384D01*
G01X17285Y9302D01*
G01X17203Y9275D01*
G01X17149Y9275D01*
G01X17067Y9302D01*
G01X17012Y9384D01*
G01X16985Y9521D01*
G01X16985Y9602D01*
G01X17012Y9739D01*
G01X17067Y9821D01*
G01X17149Y9848D01*
G01X17203Y9848D01*
G01X16805Y9739D02*
G01X16751Y9766D01*
G01X16669Y9848D01*
G01X16669Y9275D01*
G01X16352Y9848D02*
G01X16434Y9821D01*
G01X16461Y9766D01*
G01X16461Y9711D01*
G01X16434Y9657D01*
G01X16380Y9630D01*
G01X16271Y9602D01*
G01X16189Y9575D01*
G01X16134Y9521D01*
G01X16107Y9466D01*
G01X16107Y9384D01*
G01X16134Y9330D01*
G01X16161Y9302D01*
G01X16243Y9275D01*
G01X16352Y9275D01*
G01X16434Y9302D01*
G01X16461Y9330D01*
G01X16489Y9384D01*
G01X16489Y9466D01*
G01X16461Y9521D01*
G01X16407Y9575D01*
G01X16325Y9602D01*
G01X16216Y9630D01*
G01X16161Y9657D01*
G01X16134Y9711D01*
G01X16134Y9766D01*
G01X16161Y9821D01*
G01X16243Y9848D01*
G01X16352Y9848D01*
G54D29*
G01X24048Y14079D02*
G01X24420Y13864D01*
G01X23891Y13684D02*
G01X23876Y13739D01*
G01X23889Y13803D01*
G01X23930Y13874D01*
G01X23978Y13917D01*
G01X24034Y13932D01*
G01X24069Y13911D01*
G01X24095Y13873D01*
G01X24102Y13845D01*
G01X24099Y13799D01*
G01X24073Y13673D01*
G01X24071Y13627D01*
G01X24078Y13599D01*
G01X24103Y13561D01*
G01X24157Y13530D01*
G01X24212Y13545D01*
G01X24261Y13588D01*
G01X24302Y13659D01*
G01X24315Y13722D01*
G01X24300Y13778D01*
G01X23705Y13280D02*
G01X23680Y13319D01*
G01X23665Y13375D01*
G01X23668Y13420D01*
G01X23709Y13491D01*
G01X23747Y13516D01*
G01X23803Y13531D01*
G01X23849Y13528D01*
G01X23912Y13516D01*
G01X24000Y13464D01*
G01X24043Y13416D01*
G01X24069Y13378D01*
G01X24084Y13322D01*
G01X24081Y13276D01*
G01X24040Y13205D01*
G01X24002Y13180D01*
G01X23946Y13165D01*
G01X23900Y13168D01*
G01X23549Y13215D02*
G01X23921Y13000D01*
G01X23549Y13215D02*
G01X23457Y13055D01*
G01X23444Y12992D01*
G01X23452Y12964D01*
G01X23477Y12926D01*
G01X23530Y12895D01*
G01X23576Y12892D01*
G01X23604Y12900D01*
G01X23652Y12943D01*
G01X23744Y13102D01*
G54D28*
G01X25951Y20480D02*
G01X25974Y20525D01*
G01X26020Y20571D01*
G01X26065Y20593D01*
G01X26156Y20593D01*
G01X26201Y20571D01*
G01X26247Y20525D01*
G01X26270Y20480D01*
G01X26292Y20411D01*
G01X26292Y20298D01*
G01X26270Y20230D01*
G01X26247Y20184D01*
G01X26201Y20139D01*
G01X26156Y20116D01*
G01X26065Y20116D01*
G01X26020Y20139D01*
G01X25974Y20184D01*
G01X25951Y20230D01*
G01X25801Y20593D02*
G01X25801Y20116D01*
G01X25801Y20593D02*
G01X25597Y20593D01*
G01X25529Y20571D01*
G01X25506Y20548D01*
G01X25483Y20502D01*
G01X25483Y20457D01*
G01X25506Y20411D01*
G01X25529Y20389D01*
G01X25597Y20366D01*
G01X25801Y20366D01*
G01X25642Y20366D02*
G01X25483Y20116D01*
G01X25311Y20480D02*
G01X25311Y20502D01*
G01X25288Y20548D01*
G01X25265Y20571D01*
G01X25220Y20593D01*
G01X25129Y20593D01*
G01X25083Y20571D01*
G01X25061Y20548D01*
G01X25038Y20502D01*
G01X25038Y20457D01*
G01X25061Y20411D01*
G01X25106Y20343D01*
G01X25333Y20116D01*
G01X25015Y20116D01*
G01X24729Y20593D02*
G01X24797Y20571D01*
G01X24842Y20502D01*
G01X24865Y20389D01*
G01X24865Y20321D01*
G01X24842Y20207D01*
G01X24797Y20139D01*
G01X24729Y20116D01*
G01X24683Y20116D01*
G01X24615Y20139D01*
G01X24570Y20207D01*
G01X24547Y20321D01*
G01X24547Y20389D01*
G01X24570Y20502D01*
G01X24615Y20571D01*
G01X24683Y20593D01*
G01X24729Y20593D01*
G01X24351Y20593D02*
G01X24101Y20593D01*
G01X24238Y20411D01*
G01X24170Y20411D01*
G01X24124Y20389D01*
G01X24101Y20366D01*
G01X24079Y20298D01*
G01X24079Y20252D01*
G01X24101Y20184D01*
G01X24147Y20139D01*
G01X24215Y20116D01*
G01X24283Y20116D01*
G01X24351Y20139D01*
G01X24374Y20161D01*
G01X24397Y20207D01*
G01X23906Y20480D02*
G01X23906Y20502D01*
G01X23883Y20548D01*
G01X23861Y20571D01*
G01X23815Y20593D01*
G01X23724Y20593D01*
G01X23679Y20571D01*
G01X23656Y20548D01*
G01X23633Y20502D01*
G01X23633Y20457D01*
G01X23656Y20411D01*
G01X23701Y20343D01*
G01X23929Y20116D01*
G01X23611Y20116D01*
G01X26231Y19293D02*
G01X26231Y18816D01*
G01X26231Y19066D02*
G01X26186Y19111D01*
G01X26140Y19134D01*
G01X26072Y19134D01*
G01X26026Y19111D01*
G01X25981Y19066D01*
G01X25958Y18998D01*
G01X25958Y18952D01*
G01X25981Y18884D01*
G01X26026Y18839D01*
G01X26072Y18816D01*
G01X26140Y18816D01*
G01X26186Y18839D01*
G01X26231Y18884D01*
G01X25536Y19134D02*
G01X25536Y18816D01*
G01X25536Y19066D02*
G01X25581Y19111D01*
G01X25626Y19134D01*
G01X25695Y19134D01*
G01X25740Y19111D01*
G01X25786Y19066D01*
G01X25808Y18998D01*
G01X25808Y18952D01*
G01X25786Y18884D01*
G01X25740Y18839D01*
G01X25695Y18816D01*
G01X25626Y18816D01*
G01X25581Y18839D01*
G01X25536Y18884D01*
G01X25317Y19293D02*
G01X25317Y18907D01*
G01X25295Y18839D01*
G01X25249Y18816D01*
G01X25204Y18816D01*
G01X25386Y19134D02*
G01X25226Y19134D01*
G01X24986Y19293D02*
G01X24986Y18907D01*
G01X24963Y18839D01*
G01X24917Y18816D01*
G01X24872Y18816D01*
G01X25054Y19134D02*
G01X24895Y19134D01*
G01X24722Y18998D02*
G01X24449Y18998D01*
G01X24449Y19043D01*
G01X24472Y19089D01*
G01X24495Y19111D01*
G01X24540Y19134D01*
G01X24608Y19134D01*
G01X24654Y19111D01*
G01X24699Y19066D01*
G01X24722Y18998D01*
G01X24722Y18952D01*
G01X24699Y18884D01*
G01X24654Y18839D01*
G01X24608Y18816D01*
G01X24540Y18816D01*
G01X24495Y18839D01*
G01X24449Y18884D01*
G01X24299Y19134D02*
G01X24299Y18816D01*
G01X24299Y18998D02*
G01X24276Y19066D01*
G01X24231Y19111D01*
G01X24186Y19134D01*
G01X24117Y19134D01*
G01X23945Y19134D02*
G01X23808Y18816D01*
G01X23672Y19134D02*
G01X23808Y18816D01*
G01X23854Y18725D01*
G01X23899Y18680D01*
G01X23945Y18657D01*
G01X23967Y18657D01*
G54D10*
G75*
G01X13385Y14591D02*
G3X13241Y14644I-99J-46D01*
G01*
G75*
G01X13674Y13894D02*
G3X13700Y14045I-63J89D01*
G01*
G75*
G01X13163Y13598D02*
G2X13019Y13651I-46J99D01*
G01*
G75*
G01X12704Y14197D02*
G2X12730Y14348I89J63D01*
G01*
G75*
G01X24162Y16521D02*
G03X24162Y16521I-360J0D01*
G01*
G75*
G01X14062Y16621D02*
G03X14062Y16621I-360J0D01*
G01*
G75*
G01X26728Y19721D02*
G03X26728Y19721I-1776J0D01*
G01*
M00*
M02*
