G04 ---------------------------- Layer name :KeepOutLayer*
G04 EasyEDA v5.8.22, Wed, 05 Dec 2018 12:37:06 GMT*
G04 38c36d2c5fec4219b0fe707d271aa1e6*
G04 Gerber Generator version 0.2*
G04 Scale: 100 percent, Rotated: No, Reflected: No *
G04 Dimensions in inches *
G04 leading zeros omitted , absolute positions ,2 integer and 4 decimal *
%FSLAX24Y24*%
%MOIN*%
G90*
G70D02*

%ADD10C,0.010000*%
G54D10*
G01X28932Y17223D02*
G01X24409Y25057D01*
G01X25180Y26390D01*
G01X25811Y26386D01*
G01X25784Y27436D01*
G01X28628Y32363D01*
G01X27425Y33057D01*
G01X24573Y28117D01*
G01X23665Y27626D01*
G01X23980Y27088D01*
G01X23207Y25751D01*
G01X14161Y25751D01*
G01X13392Y27084D01*
G01X13711Y27630D01*
G01X12788Y28130D01*
G01X9944Y33057D01*
G01X8740Y32363D01*
G01X11592Y27424D01*
G01X11565Y26390D01*
G01X12186Y26394D01*
G01X12959Y25057D01*
G01X8436Y17223D01*
G01X6896Y17223D01*
G01X6582Y17772D01*
G01X5688Y17223D01*
G01X0Y17223D01*
G01X0Y15834D01*
G01X5703Y15834D01*
G01X6582Y15294D01*
G01X6890Y15834D01*
G01X8436Y15834D01*
G01X12959Y8000D01*
G01X12188Y6667D01*
G01X11557Y6669D01*
G01X11584Y5619D01*
G01X8740Y694D01*
G01X9944Y0D01*
G01X12794Y4938D01*
G01X13703Y5430D01*
G01X13388Y5967D01*
G01X14161Y7305D01*
G01X23207Y7305D01*
G01X23978Y5972D01*
G01X23657Y5426D01*
G01X24582Y4926D01*
G01X27425Y0D01*
G01X28628Y694D01*
G01X25777Y5632D01*
G01X25805Y6665D01*
G01X25182Y6661D01*
G01X24409Y8000D01*
G01X28933Y15834D01*
G01X30473Y15834D01*
G01X30786Y15284D01*
G01X31680Y15834D01*
G01X37369Y15834D01*
G01X37369Y17222D01*
G01X31666Y17222D01*
G01X30786Y17763D01*
G01X30478Y17222D01*
G01X28933Y17222D01*

%LPD*%
M00*
M02*
