G04 ---------------------------- Layer name :BOTTOM PASTER LAYER*
G04 EasyEDA v5.8.22, Wed, 05 Dec 2018 12:37:06 GMT*
G04 38c36d2c5fec4219b0fe707d271aa1e6*
G04 Gerber Generator version 0.2*
G04 Scale: 100 percent, Rotated: No, Reflected: No *
G04 Dimensions in inches *
G04 leading zeros omitted , absolute positions ,2 integer and 4 decimal *
%FSLAX24Y24*%
%MOIN*%
G90*
G70D02*

%ADD15R,0.045670X0.057870*%
%ADD18R,0.078740X0.078740*%
%ADD19R,0.160000X0.160000*%
%ADD20R,0.200000X0.200000*%
%ADD24C,0.070000*%

%LPD*%
G36*
G01X13690Y5426D02*
G01X13007Y5032D01*
G01X12613Y5715D01*
G01X13296Y6109D01*
G01X13690Y5426D01*
G37*
G36*
G01X9696Y182D02*
G01X9013Y576D01*
G01X9407Y1259D01*
G01X10090Y865D01*
G01X9696Y182D01*
G37*
G54D18*
G01X11951Y6271D03*
G36*
G01X6596Y15332D02*
G01X5913Y15726D01*
G01X6307Y16409D01*
G01X6990Y16015D01*
G01X6596Y15332D01*
G37*
G36*
G01X5863Y17365D02*
G01X6546Y17759D01*
G01X6940Y17077D01*
G01X6257Y16682D01*
G01X5863Y17365D01*
G37*
G01X11951Y26821D03*
G36*
G01X13007Y28009D02*
G01X13690Y27615D01*
G01X13296Y26932D01*
G01X12613Y27327D01*
G01X13007Y28009D01*
G37*
G36*
G01X23713Y27615D02*
G01X24396Y28009D01*
G01X24790Y27327D01*
G01X24107Y26932D01*
G01X23713Y27615D01*
G37*
G01X25402Y26821D03*
G36*
G01X30808Y17709D02*
G01X31490Y17315D01*
G01X31095Y16632D01*
G01X30413Y17027D01*
G01X30808Y17709D01*
G37*
G36*
G01X31490Y15726D02*
G01X30808Y15332D01*
G01X30413Y16015D01*
G01X31095Y16409D01*
G01X31490Y15726D01*
G37*
G01X25402Y6271D03*
G36*
G01X24346Y5032D02*
G01X23663Y5426D01*
G01X24057Y6109D01*
G01X24740Y5715D01*
G01X24346Y5032D01*
G37*
G01X401Y16521D03*
G36*
G01X9013Y32465D02*
G01X9696Y32859D01*
G01X10090Y32177D01*
G01X9407Y31782D01*
G01X9013Y32465D01*
G37*
G36*
G01X27707Y32909D02*
G01X28390Y32515D01*
G01X27996Y31832D01*
G01X27313Y32227D01*
G01X27707Y32909D01*
G37*
G01X36952Y16521D03*
G36*
G01X28340Y576D02*
G01X27657Y182D01*
G01X27263Y865D01*
G01X27946Y1259D01*
G01X28340Y576D01*
G37*
G54D19*
G01X18702Y16521D03*
G54D20*
G01X23702Y16521D03*
G01X13701Y16521D03*
G36*
G01X11475Y12792D02*
G01X11573Y12623D01*
G01X11948Y12838D01*
G01X11850Y13009D01*
G01X11475Y12792D01*
G37*
G36*
G01X11180Y13305D02*
G01X11278Y13134D01*
G01X11653Y13351D01*
G01X11555Y13521D01*
G01X11180Y13305D01*
G37*
G36*
G01X12065Y11771D02*
G01X12165Y11600D01*
G01X12540Y11817D01*
G01X12440Y11986D01*
G01X12065Y11771D01*
G37*
G54D15*
G01X20202Y11421D03*
G01X19402Y11421D03*
G01X17202Y11421D03*
G01X18002Y11421D03*
G36*
G01X13561Y13999D02*
G01X13436Y14215D01*
G01X13003Y13965D01*
G01X13128Y13749D01*
G01X13561Y13999D01*
G37*
G36*
G01X13400Y14276D02*
G01X13275Y14492D01*
G01X12842Y14242D01*
G01X12967Y14026D01*
G01X13400Y14276D01*
G37*
G36*
G01X23923Y11926D02*
G01X24530Y11576D01*
G01X24880Y12183D01*
G01X24273Y12533D01*
G01X23923Y11926D01*
G37*
G54D24*
G01X25268Y11554D03*
G01X24902Y12921D03*
G01X25768Y12421D03*
G01X25402Y13787D03*
G01X26268Y13287D03*
M00*
M02*
